# xmcd CD database file
#
# Track frame offsets:
#	182
#	16595
#	30992
#	39665
#	52700
#	64460
#	77380
#	85842
#	94452
#	104152
#	115585
#	135385
#	146045
#	156532
#
# Disc length: 2278 seconds
#
# Revision: 0
# Processed by: cddbd v1.5.2PL0 Copyright (c) Steve Scherf et al.
# Submitted via: Feurio! 1.68 - http://www.feurio.com
#
DISCID=b008e40e
DTITLE=Bob Wills And His Texas Playboys - Basin Street Blues
DYEAR=1984
DGENRE=Country
TTITLE0=Basin Street Blues
TTITLE1=I'm A Ding Dong Daddy
TTITLE2=Crazy Rhythm
TTITLE3=Milk Cow Blues
TTITLE4=Please Don't Talk About
TTITLE5=Four Or Five Times
TTITLE6=Frankie Jean
TTITLE7=It's Your Red Wagon
TTITLE8=A Good Man Is Hard To Find
TTITLE9=You Just Take Here
TTITLE10=Barnard Blues
TTITLE11=I Never Knew
TTITLE12=Baby Won't You Please Come Home
TTITLE13=Take The "A" Train
EXTD=
EXTT0=
EXTT1=
EXTT2=
EXTT3=
EXTT4=
EXTT5=
EXTT6=
EXTT7=
EXTT8=
EXTT9=
EXTT10=
EXTT11=
EXTT12=
EXTT13=
PLAYORDER=
